<svg width="153" height="24" viewBox="0 0 153 24" fill="none" xmlns="http://www.w3.org/2000/svg">
<path d="M6.41377 3.50207C9.33793 3.50207 10.7545 3.50207 13.666 3.50207L14.5826 0.917969C9.4113 0.917969 5.14784 0.917969 0 0.917969C0 8.31467 0 16.0279 0 23.4246C2.12782 23.4246 4.25563 23.4246 6.40399 23.4246C6.40399 19.9368 6.40399 16.491 6.40399 13.0227C8.69518 13.0227 7.91254 13.0227 10.1949 13.0227L11.0275 10.7385C8.61496 10.7385 8.78029 10.7385 6.41279 10.7385C6.41377 8.31955 6.41377 5.924 6.41377 3.50207Z" fill="white"/>
<path d="M62.1099 2.334C62.1315 4.60352 62.1373 5.26493 62.1471 7.53445C62.1471 7.62042 62.1471 7.70737 62.1471 7.77283C61.6267 7.56767 61.1365 7.31951 60.617 7.18078C59.2269 6.80856 57.8279 6.90235 56.4544 7.27653C54.0057 7.9438 52.2535 9.41708 51.3985 11.839C50.7547 13.664 50.6902 15.8563 51.102 17.736C51.6802 20.3719 53.2015 22.2477 55.7656 23.2061C56.7606 23.5784 57.7976 23.7347 58.858 23.6018C60.0809 23.4494 61.0465 22.8144 61.8634 21.9243C61.9642 21.814 62.064 21.7026 62.1647 21.5922C62.1833 21.601 62.2009 21.6107 62.2195 21.6195C62.2195 22.2174 62.2195 22.8154 62.2195 23.4172C63.9893 23.4172 65.7316 23.4172 67.5004 23.4172C67.5004 15.2575 67.5004 8.15483 67.5004 0L62.4122 1.92758C62.1872 1.99987 62.108 2.08975 62.1099 2.334ZM59.6935 21.6518C58.049 21.7788 56.5199 19.1663 56.2763 15.8163C56.0337 12.4662 57.1695 9.64667 58.814 9.51967C60.4586 9.39266 61.9886 12.0051 62.2312 15.3552C62.4748 18.7052 61.338 21.5238 59.6935 21.6518Z" fill="white"/>
<path d="M104.742 9.99448C104.366 8.97159 103.777 8.10598 102.801 7.57744C101.433 6.83494 99.9848 6.73821 98.5086 7.20521C97.359 7.56865 96.367 8.18903 95.6128 9.14744C95.5081 9.28031 95.4288 9.4337 95.3026 9.63398C95.3026 5.9537 95.3026 3.63338 95.3026 0C95.3026 0 91.7817 1.41369 90.1235 1.99304C89.921 2.05654 89.8672 2.14935 89.8672 2.35354C89.8731 9.74047 89.8721 15.7479 89.8721 23.1348C89.8721 23.2237 89.8721 23.3117 89.8721 23.4123C91.6888 23.4123 93.4791 23.4123 95.3075 23.4123C95.3075 23.3029 95.3075 23.214 95.3075 23.1241C95.3075 21.9605 95.3066 20.7969 95.3075 19.6324C95.3095 17.5192 95.3095 15.4069 95.3183 13.2937C95.3203 12.7662 95.4504 12.262 95.7175 11.8038C96.1949 10.9851 96.9081 10.5416 97.8648 10.61C98.7942 10.6764 99.4428 11.1991 99.7481 12.0647C99.8987 12.4907 99.9623 12.9664 99.9653 13.4207C99.9829 16.6477 99.975 19.8747 99.975 23.1026C99.975 23.2052 99.975 23.3087 99.975 23.4064C101.76 23.4064 103.508 23.4064 105.275 23.4064C105.275 23.3156 105.275 23.2423 105.275 23.169C105.275 19.9167 105.283 16.6653 105.27 13.4129C105.265 12.3373 105.118 11.0135 104.742 9.99448Z" fill="white"/>
<path d="M76.443 5.89343C76.85 4.99559 77.3959 4.20912 78.2861 3.72747C79.4806 3.08071 81.358 2.98595 82.4928 4.57842C82.9556 5.22811 83.2393 5.95401 83.386 6.73168C83.4682 7.17034 83.5093 7.61585 83.569 8.076L88.3343 6.26957C88.1093 5.23397 87.6505 4.33711 86.9431 3.56823C85.3681 1.85656 83.344 1.10527 81.0792 0.946995C79.2595 0.820965 77.4859 1.10624 75.7885 1.78524C73.0013 2.90095 70.9527 4.79629 69.8541 7.61292C68.7339 10.4833 68.7222 13.4171 69.588 16.35C70.2709 18.6625 71.6219 20.5139 73.6607 21.8358C75.0783 22.7541 76.6445 23.267 78.3135 23.4742C79.6929 23.6451 81.0694 23.6559 82.4195 23.2719C84.7146 22.6183 86.4628 21.2662 87.5986 19.1549C87.7385 18.8941 87.8569 18.6225 87.9303 18.3313L86.2975 17.6963C86.049 18.1486 85.8602 18.5932 85.5843 18.9771C84.651 20.2785 83.34 20.8783 81.7591 20.9106C79.4121 20.9594 77.6473 19.9902 76.5438 17.8937C75.9235 16.7144 75.6447 15.4375 75.5077 14.1254C75.3307 12.4177 75.3952 10.7129 75.6183 9.01488C75.7601 7.9402 75.992 6.88702 76.443 5.89343Z" fill="white"/>
<path d="M117.156 7.40361C115.27 6.99425 113.406 7.14569 111.609 7.86181C109.599 8.66195 108.197 10.0864 107.42 12.1009C106.842 13.5996 106.684 15.1589 106.895 16.7484C107.244 19.3804 108.529 21.4291 110.828 22.7842C112.616 23.8383 114.567 24.2359 116.62 23.8627C118.433 23.5325 119.91 22.578 121.101 21.1839C121.503 20.713 121.832 20.1913 122.04 19.5855C121.415 19.226 120.803 18.8733 120.18 18.5148C120.125 18.6095 120.079 18.6867 120.034 18.7649C119.684 19.3677 119.268 19.9158 118.766 20.4042C117.234 21.8951 115.278 21.4506 114.141 20.4062C113.358 19.6871 112.936 18.7639 112.708 17.7478C112.601 17.2691 112.548 16.7787 112.465 16.2599C115.828 16.2599 119.131 16.2599 122.445 16.2599C122.551 14.8198 122.494 13.326 122.023 11.887C121.235 9.49336 119.641 7.9429 117.156 7.40361ZM112.523 14.1877C112.655 12.6734 112.828 11.2031 113.666 9.91248C113.981 9.42693 114.402 9.05665 115.015 9.01269C115.789 8.957 116.319 9.33509 116.675 9.99357C117.048 10.6823 117.181 11.4375 117.254 12.2015C117.317 12.8551 117.331 13.5136 117.367 14.1887C115.74 14.1877 114.152 14.1877 112.523 14.1877Z" fill="white"/>
<path d="M134.036 6.8567C131.862 6.62808 130.337 7.5865 129.412 9.56097C129.412 8.5752 129.412 7.28266 129.412 6.26953L124.261 8.24107C124.044 8.31044 123.975 8.40032 123.977 8.63284C124.016 13.4855 123.972 23.3344 123.977 23.4155C125.751 23.4155 127.624 23.4155 129.417 23.4155C129.417 23.2934 129.417 23.1957 129.417 23.098C129.417 20.465 129.417 17.8321 129.417 15.1991C129.417 14.481 129.422 13.7629 129.416 13.0449C129.412 12.5564 129.547 12.1197 129.845 11.7308C130.767 10.5213 132.531 10.3328 133.667 11.344C133.997 11.638 134.278 11.9858 134.595 12.3239C135.591 11.3078 136.608 10.2722 137.641 9.22098C136.788 7.87959 135.614 7.02278 134.036 6.8567Z" fill="white"/>
<path d="M139.129 8.59669C139.135 13.3429 139.134 18.4056 139.134 23.1517C139.134 23.2387 139.134 23.3256 139.134 23.4077C140.951 23.4077 142.731 23.4077 144.533 23.4077C144.533 17.8975 144.533 11.7787 144.533 6.26953L139.374 8.24987C139.181 8.31239 139.129 8.39934 139.129 8.59669Z" fill="white"/>
<path d="M114.574 5.10177L121.445 0.917374L121.771 0.0205078L115.543 0.0244166C115.475 0.0166007 115.358 0.0879198 115.326 0.1524L113.59 4.92396C114.087 5.11447 113.726 4.97085 114.197 5.16429C114.349 5.22682 114.45 5.2024 114.574 5.10177Z" fill="white"/>
<path d="M25.5006 7.61623C23.5596 6.79557 21.5394 6.73207 19.5133 7.2694C16.733 8.008 14.704 9.61317 13.5848 12.1787C12.9264 13.6872 12.8286 15.264 13.1181 16.8623C13.4782 18.8476 14.4359 20.5094 16.1401 21.7394C17.7289 22.8874 19.5671 23.4013 21.5335 23.4257C22.3152 23.3123 23.1145 23.2635 23.8756 23.0749C26.6491 22.3891 28.6928 20.8416 29.7875 18.2799C30.6034 16.3709 30.5389 14.4121 29.9137 12.4738C29.1947 10.2472 27.7605 8.57074 25.5006 7.61623ZM23.8697 21.5548C22.1812 22.1683 20.0553 19.9203 18.8452 16.5986C17.634 13.2759 17.7964 10.1368 19.485 9.52329C21.1735 8.90975 23.3121 11.2613 24.5223 14.584C25.7334 17.9058 25.5583 20.9412 23.8697 21.5548Z" fill="white"/>
<path d="M44.4498 7.61623C42.5088 6.79557 40.4886 6.73207 38.4625 7.2694C35.6822 8.008 33.6532 9.61317 32.534 12.1787C31.8756 13.6872 31.7778 15.264 32.0674 16.8623C32.4274 18.8476 33.3851 20.5094 35.0893 21.7394C36.6781 22.8874 38.5164 23.4013 40.4827 23.4257C41.2644 23.3123 42.0637 23.2635 42.8248 23.0749C45.5983 22.3891 47.642 20.8416 48.7367 18.2799C49.5526 16.3709 49.4881 14.4121 48.8629 12.4738C48.1448 10.2472 46.7106 8.57074 44.4498 7.61623ZM42.8189 21.5548C41.1304 22.1683 39.0045 19.9203 37.7944 16.5986C36.5832 13.2759 36.7456 10.1368 38.4342 9.52329C40.1227 8.90975 42.2613 11.2613 43.4715 14.584C44.6826 17.9058 44.5075 20.9412 42.8189 21.5548Z" fill="white"/>
<path d="M141.837 0.0205078C140.349 0.0205078 139.142 1.22512 139.142 2.71208C139.142 4.19904 140.348 5.40366 141.837 5.40366C143.326 5.40366 144.532 4.19904 144.532 2.71208C144.532 1.2261 143.326 0.0205078 141.837 0.0205078Z" fill="white"/>
<path d="M152.85 20.0105C152.626 19.3159 152.178 18.7922 151.472 18.4933C150.865 18.2373 150.234 18.2168 149.601 18.3848C148.733 18.6154 148.099 19.1166 147.749 19.9187C147.544 20.3896 147.514 20.883 147.604 21.3822C147.716 22.0026 148.015 22.5214 148.548 22.9063C149.044 23.2649 149.618 23.4251 150.232 23.4329C150.477 23.3977 150.726 23.3821 150.964 23.3235C151.831 23.1095 152.469 22.6259 152.811 21.8258C153.066 21.2279 153.046 20.6163 152.85 20.0105Z" fill="white"/>
</svg>
